<svg width="167" height="207" fill="none" xmlns="http://www.w3.org/2000/svg"><path d="M67.9327 123.268l-.588-1.764h-3.906l-.588 1.764h-2.086l3.43-9.8h2.394l3.444 9.8h-2.1zm-3.878-3.57h2.688l-1.344-4.004-1.344 4.004zm11.9602-6.23h1.806v9.8h-1.806v-.826c-.532.681-1.288 1.022-2.268 1.022-.9427 0-1.75-.355-2.422-1.064-.6627-.719-.994-1.596-.994-2.632s.3313-1.909.994-2.618c.672-.719 1.4793-1.078 2.422-1.078.98 0 1.736.34 2.268 1.022v-3.626zm-3.332 7.728c.3733.364.84.546 1.4.546.56 0 1.022-.182 1.386-.546.364-.374.546-.85.546-1.428 0-.579-.182-1.05-.546-1.414-.364-.374-.826-.56-1.386-.56-.56 0-1.0267.186-1.4.56-.364.364-.546.835-.546 1.414 0 .578.182 1.054.546 1.428zm12.7537 1.204c-.7187.709-1.596 1.064-2.632 1.064s-1.9134-.355-2.632-1.064c-.7094-.719-1.064-1.596-1.064-2.632s.3546-1.909 1.064-2.618c.7186-.719 1.596-1.078 2.632-1.078s1.9133.359 2.632 1.078c.7186.709 1.078 1.582 1.078 2.618 0 1.036-.3594 1.913-1.078 2.632zm-3.99-1.246c.364.364.8166.546 1.358.546.5413 0 .994-.182 1.358-.546.364-.364.546-.826.546-1.386 0-.56-.182-1.022-.546-1.386-.364-.364-.8167-.546-1.358-.546-.5414 0-.994.182-1.358.546-.3547.364-.532.826-.532 1.386 0 .56.1773 1.022.532 1.386zm10.4125-5.082c.9426 0 1.7453.359 2.408 1.078.672.709 1.008 1.582 1.008 2.618 0 1.036-.336 1.913-1.008 2.632-.6627.709-1.4654 1.064-2.408 1.064-.98 0-1.736-.341-2.268-1.022v.826h-1.806v-9.8h1.806v3.626c.532-.682 1.288-1.022 2.268-1.022zm-1.722 5.124c.364.364.826.546 1.386.546.56 0 1.022-.182 1.386-.546.3733-.374.56-.85.56-1.428 0-.579-.1867-1.05-.56-1.414-.364-.374-.826-.56-1.386-.56-.56 0-1.022.186-1.386.56-.364.364-.546.835-.546 1.414 0 .578.182 1.054.546 1.428zm7.9376-.686c.2427.877.9007 1.316 1.9743 1.316.69 0 1.213-.234 1.568-.7l1.456.84c-.691.998-1.708 1.498-3.052 1.498-1.1576 0-2.0863-.35-2.7863-1.05-.7-.7-1.05-1.582-1.05-2.646 0-1.055.3454-1.932 1.036-2.632.6907-.71 1.5774-1.064 2.66-1.064 1.0263 0 1.8713.354 2.5343 1.064.672.709 1.008 1.586 1.008 2.632 0 .233-.024.48-.07.742h-5.2783zm-.028-1.4h3.5703c-.103-.476-.318-.831-.644-1.064-.318-.234-.682-.35-1.0923-.35-.4853 0-.8866.126-1.204.378-.3173.242-.5273.588-.63 1.036zm-46.0212 21.158l-.588-1.764h-3.906l-.588 1.764h-2.086l3.43-9.8h2.394l3.444 9.8h-2.1zm-3.878-3.57h2.688l-1.344-4.004-1.344 4.004zm10.4065-4.69c-.9893-.075-1.484.322-1.484 1.19v.07h1.484v1.736H57.07v5.264h-1.806v-5.264h-1.008v-1.736h1.008v-.07c0-.99.2753-1.741.826-2.254.5507-.514 1.372-.738 2.464-.672v1.736zm5.0505 2.996h-1.582v2.912c0 .242.0607.42.182.532.1213.112.2987.177.532.196.2333.009.5227.004.868-.014v1.638c-1.2413.14-2.1187.023-2.632-.35-.504-.374-.756-1.041-.756-2.002v-2.912h-1.218v-1.736h1.218v-1.414l1.806-.546v1.96h1.582v1.736zm2.5806 2.506c.2427.877.9007 1.316 1.974 1.316.6907 0 1.2133-.234 1.568-.7l1.456.84c-.6907.998-1.708 1.498-3.052 1.498-1.1573 0-2.086-.35-2.786-1.05-.7-.7-1.05-1.582-1.05-2.646 0-1.055.3453-1.932 1.036-2.632.6907-.71 1.5773-1.064 2.66-1.064 1.0267 0 1.8713.354 2.534 1.064.672.709 1.008 1.586 1.008 2.632 0 .233-.0233.48-.07.742h-5.278zm-.028-1.4h3.57c-.1027-.476-.3173-.831-.644-1.064-.3173-.234-.6813-.35-1.092-.35-.4853 0-.8867.126-1.204.378-.3173.242-.5273.588-.63 1.036zm8.4428-1.638c.168-.448.4433-.784.826-1.008.392-.224.826-.336 1.302-.336v2.016c-.5507-.066-1.0454.046-1.484.336-.4294.289-.644.77-.644 1.442v3.346h-1.806v-7h1.806v1.204zm8.7002 3.948h4.13v1.848h-6.062v-9.8h5.992v1.848h-4.06v2.086h3.71v1.82h-3.71v2.198zm13.0518-6.552c-.9893-.075-1.484.322-1.484 1.19v.21h1.484v1.736h-1.484v5.264h-1.806v-5.264h-2.072v5.264h-1.806v-5.264h-1.008v-1.736h1.008v-.07c0-.99.2754-1.741.826-2.254.5507-.514 1.372-.738 2.464-.672v1.736c-.9893-.075-1.484.322-1.484 1.19v.07h2.072v-.21c0-.99.2754-1.741.826-2.254.56-.514 1.3814-.738 2.464-.672v1.736zm2.0988 5.642c.2427.877.9007 1.316 1.9743 1.316.69 0 1.213-.234 1.568-.7l1.456.84c-.691.998-1.708 1.498-3.052 1.498-1.1576 0-2.0863-.35-2.7863-1.05-.7-.7-1.05-1.582-1.05-2.646 0-1.055.3454-1.932 1.036-2.632.6907-.71 1.5774-1.064 2.6603-1.064 1.026 0 1.871.354 2.534 1.064.672.709 1.008 1.586 1.008 2.632 0 .233-.024.48-.07.742h-5.2783zm-.028-1.4h3.5703c-.103-.476-.318-.831-.644-1.064-.318-.234-.682-.35-1.092-.35-.4856 0-.8869.126-1.2043.378-.3173.242-.5273.588-.63 1.036zm9.9143 4.354c-1.055 0-1.937-.355-2.646-1.064-.7-.71-1.05-1.587-1.05-2.632 0-1.046.35-1.923 1.05-2.632.709-.71 1.591-1.064 2.646-1.064.681 0 1.302.163 1.862.49.56.326.984.765 1.274 1.316l-1.554.91c-.14-.29-.355-.518-.644-.686-.28-.168-.598-.252-.952-.252-.542 0-.99.182-1.344.546-.355.354-.532.812-.532 1.372 0 .55.177 1.008.532 1.372.354.354.802.532 1.344.532.364 0 .686-.08.966-.238.289-.168.504-.397.644-.686l1.568.896c-.308.55-.742.994-1.302 1.33-.56.326-1.181.49-1.862.49zm8.123-5.46h-1.582v2.912c0 .242.061.42.182.532.121.112.299.177.532.196.233.009.523.004.868-.014v1.638c-1.241.14-2.119.023-2.632-.35-.504-.374-.756-1.041-.756-2.002v-2.912h-1.218v-1.736h1.218v-1.414l1.806-.546v1.96h1.582v1.736zm2.789.252c0 .186.121.34.364.462.252.112.555.214.91.308.355.084.709.196 1.064.336.355.13.653.354.896.672.252.317.378.714.378 1.19 0 .718-.271 1.274-.812 1.666-.532.382-1.199.574-2.002.574-1.437 0-2.417-.556-2.94-1.666l1.568-.882c.205.606.663.91 1.372.91.644 0 .966-.201.966-.602 0-.187-.126-.336-.378-.448-.243-.122-.541-.229-.896-.322-.355-.094-.709-.21-1.064-.35-.355-.14-.658-.36-.91-.658-.243-.308-.364-.691-.364-1.148 0-.691.252-1.232.756-1.624.513-.402 1.148-.602 1.904-.602.569 0 1.087.13 1.554.392.467.252.835.616 1.106 1.092l-1.54.84c-.224-.476-.597-.714-1.12-.714-.233 0-.429.051-.588.154-.149.102-.224.242-.224.42z" fill="#828282"/><path d="M43.0703 4.45312h81.7607V85.458H43.0703V4.45312z" fill="url(#paint0_radial)"/><path d="M43.0703 4.45367h81.7607V85.4586H43.0703V4.45367zM39.3547 89.2423h89.2093V.669922H39.3547V89.2423zm63.1113-45.8779c1.893 0 2.572 0 2.751-.0728 0-.2728.071-.4547.071-.6367 0-2.0374-.964-5.8211-4.823-5.8211-3.5724 0-5.0908 3.1834-5.4659 6.5488h7.4669v-.0182zm-7.5384 5.1845c.0715 5.1117 2.4473 8.5498 8.1104 8.5498 2.197 0 4.09-.3093 6.055-1.1643.268-.1091.447-.0727.447.2729v4.7297c0 .382-.107.5639-.375.764-1.965.9823-4.43 1.4371-7.467 1.4371-9.8072 0-13.487-7.3856-13.487-15.5898 0-8.9318 4.5373-16.2446 12.522-16.2446 8.11 0 10.933 6.9308 10.933 12.57 0 1.8192-.108 3.2926-.304 4.0203-.072.3092-.179.4184-.482.4911-.751.1092-2.93.2729-6.199.2729h-9.7355v-.1091h-.0179zm-19.9355-3.8566c-1.0361-4.2021-3.5727-13.3522-4.5016-17.7908h-.0714c-.786 4.4204-2.8224 11.9151-4.3408 17.7908h8.9138zm-10.4322 6.1304l-2.9296 11.3149c-.0714.3092-.1786.4184-.5537.4184h-5.4841c-.3751 0-.4466-.1092-.3751-.5639l10.5572-37.5828c.1787-.6731.3037-1.2188.3752-3.1107 0-.2729.1071-.382.3036-.382h7.8063c.268 0 .3751.0728.4466.382L86.514 62.0648c.0714.3093 0 .4912-.3037.4912h-6.1271c-.3037 0-.4824-.1092-.5538-.382l-3.0546-11.3513H64.5599z" fill="#D8A1FF"/><path d="M12.2142 183.86c.2998-.921 1.6018-.921 1.9016 0l1.7511 5.374c.1341.412.5179.69.9508.69h5.6608c.9693 0 1.3717 1.241.5867 1.81l-4.5749 3.315c-.3515.254-.4985.707-.3641 1.119l1.7486 5.367c.3.921-.7533 1.688-1.5375 1.119l-4.5856-3.322c-.35-.254-.8234-.254-1.1734 0l-4.58557 3.322c-.78426.569-1.83755-.198-1.53753-1.119l1.74857-5.367c.13446-.412-.01262-.865-.36408-1.119l-4.57487-3.315c-.78501-.569-.38268-1.81.58671-1.81h5.66076c.43293 0 .81671-.278.95081-.69l1.7511-5.374zM47.3116 183.86c.2998-.921 1.6018-.921 1.9016 0l1.7511 5.374c.1341.412.5179.69.9508.69h5.6608c.9694 0 1.3717 1.241.5867 1.81l-4.5749 3.315c-.3515.254-.4985.707-.3641 1.119l1.7486 5.367c.3.921-.7533 1.688-1.5375 1.119l-4.5856-3.322c-.35-.254-.8234-.254-1.1734 0l-4.5856 3.322c-.7842.569-1.8375-.198-1.5375-1.119l1.7486-5.367c.1344-.412-.0126-.865-.3641-1.119l-4.5749-3.315c-.785-.569-.3826-1.81.5867-1.81h5.6608c.4329 0 .8167-.278.9508-.69l1.7511-5.374zM82.4088 183.86c.2998-.921 1.6017-.921 1.9016 0l1.7511 5.374c.1341.412.5178.69.9508.69h5.6607c.9694 0 1.3718 1.241.5868 1.81l-4.5749 3.315c-.3515.254-.4986.707-.3641 1.119l1.7486 5.367c.3.921-.7533 1.688-1.5376 1.119l-4.5855-3.322c-.35-.254-.8234-.254-1.1734 0l-4.5856 3.322c-.7843.569-1.8375-.198-1.5375-1.119l1.7486-5.367c.1344-.412-.0127-.865-.3641-1.119l-4.5749-3.315c-.785-.569-.3827-1.81.5867-1.81h5.6608c.4329 0 .8167-.278.9508-.69l1.7511-5.374zM117.506 183.86c.3-.921 1.602-.921 1.902 0l1.751 5.374c.134.412.518.69.95.69h5.661c.97 0 1.372 1.241.587 1.81l-4.575 3.315c-.351.254-.498.707-.364 1.119l1.749 5.367c.3.921-.754 1.688-1.538 1.119l-4.586-3.322c-.35-.254-.823-.254-1.173 0l-4.586 3.322c-.784.569-1.837-.198-1.537-1.119l1.749-5.367c.134-.412-.013-.865-.365-1.119l-4.574-3.315c-.785-.569-.383-1.81.586-1.81h5.661c.433 0 .817-.278.951-.69l1.751-5.374z" fill="#070707"/><path d="M152.603 183.86c.3-.921 1.602-.921 1.901 0l1.752 5.374c.134.412.517.69.95.69h5.661c.97 0 1.372 1.241.587 1.81l-4.575 3.315c-.351.254-.499.707-.364 1.119l1.748 5.367c.3.921-.753 1.688-1.537 1.119l-4.586-3.322c-.35-.254-.823-.254-1.173 0l-4.586 3.322c-.784.569-1.837-.198-1.537-1.119l1.748-5.367c.135-.412-.012-.865-.364-1.119l-4.575-3.315c-.785-.569-.382-1.81.587-1.81h5.661c.433 0 .817-.278.951-.69l1.751-5.374z" fill="#E5E5E5"/><defs><radialGradient id="paint0_radial" cx="0" cy="0" r="1" gradientUnits="userSpaceOnUse" gradientTransform="matrix(62.1407 0 0 61.2673 70.0228 22.6143)"><stop stop-color="#442F55" stop-opacity=".98"/><stop offset="1" stop-color="#12002C"/></radialGradient></defs></svg>