<svg width="167" height="207" fill="none" xmlns="http://www.w3.org/2000/svg"><path d="M67.8664 123.268l-.588-1.764h-3.906l-.588 1.764h-2.086l3.43-9.8h2.394l3.444 9.8h-2.1zm-3.878-3.57h2.688l-1.344-4.004-1.344 4.004zm11.9602-6.23h1.806v9.8h-1.806v-.826c-.532.681-1.288 1.022-2.268 1.022-.9427 0-1.75-.355-2.422-1.064-.6627-.719-.994-1.596-.994-2.632s.3313-1.909.994-2.618c.672-.719 1.4793-1.078 2.422-1.078.98 0 1.736.34 2.268 1.022v-3.626zm-3.332 7.728c.3733.364.84.546 1.4.546.56 0 1.022-.182 1.386-.546.364-.374.546-.85.546-1.428 0-.579-.182-1.05-.546-1.414-.364-.374-.826-.56-1.386-.56-.56 0-1.0267.186-1.4.56-.364.364-.546.835-.546 1.414 0 .578.182 1.054.546 1.428zm12.7536 1.204c-.7186.709-1.596 1.064-2.632 1.064s-1.9133-.355-2.632-1.064c-.7093-.719-1.064-1.596-1.064-2.632s.3547-1.909 1.064-2.618c.7187-.719 1.596-1.078 2.632-1.078s1.9134.359 2.632 1.078c.7187.709 1.078 1.582 1.078 2.618 0 1.036-.3593 1.913-1.078 2.632zm-3.99-1.246c.364.364.8167.546 1.358.546.5414 0 .994-.182 1.358-.546.364-.364.546-.826.546-1.386 0-.56-.182-1.022-.546-1.386-.364-.364-.8166-.546-1.358-.546-.5413 0-.994.182-1.358.546-.3546.364-.532.826-.532 1.386 0 .56.1774 1.022.532 1.386zm10.4125-5.082c.9427 0 1.7454.359 2.408 1.078.672.709 1.008 1.582 1.008 2.618 0 1.036-.336 1.913-1.008 2.632-.6626.709-1.4653 1.064-2.408 1.064-.98 0-1.736-.341-2.268-1.022v.826h-1.806v-9.8h1.806v3.626c.532-.682 1.288-1.022 2.268-1.022zm-1.722 5.124c.364.364.826.546 1.386.546.56 0 1.022-.182 1.386-.546.3734-.374.56-.85.56-1.428 0-.579-.1866-1.05-.56-1.414-.364-.374-.826-.56-1.386-.56-.56 0-1.022.186-1.386.56-.364.364-.546.835-.546 1.414 0 .578.182 1.054.546 1.428zm7.9377-.686c.2427.877.9007 1.316 1.974 1.316.6906 0 1.2136-.234 1.5676-.7l1.456.84c-.69.998-1.708 1.498-3.0516 1.498-1.1573 0-2.086-.35-2.786-1.05-.7-.7-1.05-1.582-1.05-2.646 0-1.055.3453-1.932 1.036-2.632.6907-.71 1.5773-1.064 2.66-1.064 1.0266 0 1.8716.354 2.5336 1.064.672.709 1.008 1.586 1.008 2.632 0 .233-.023.48-.07.742h-5.2776zm-.028-1.4h3.5696c-.102-.476-.317-.831-.644-1.064-.317-.234-.681-.35-1.0916-.35-.4853 0-.8867.126-1.204.378-.3173.242-.5273.588-.63 1.036zm-44.1796 11.358h1.932v9.8h-1.932v-9.8zm3.6621 9.8v-10.22h1.806v10.22h-1.806zm3.459 0v-10.22h1.806v10.22h-1.806zm8.0789-7h1.806v7h-1.806v-.784c-.4386.653-1.134.98-2.086.98-.7653 0-1.4-.257-1.904-.77-.4946-.514-.742-1.223-.742-2.128v-4.298h1.806v4.074c0 .466.126.826.378 1.078.252.242.588.364 1.008.364.4667 0 .84-.145 1.12-.434.28-.29.42-.724.42-1.302v-3.78zm5.0714 1.988c0 .186.1214.34.364.462.252.112.5554.214.91.308.3547.084.7094.196 1.064.336.3547.13.6534.354.896.672.252.317.378.714.378 1.19 0 .718-.2706 1.274-.812 1.666-.532.382-1.1993.574-2.002.574-1.4373 0-2.4173-.556-2.94-1.666l1.568-.882c.2054.606.6627.91 1.372.91.644 0 .966-.201.966-.602 0-.187-.126-.336-.378-.448-.2426-.122-.5413-.229-.896-.322-.3546-.094-.7093-.21-1.064-.35-.3546-.14-.658-.36-.91-.658-.2426-.308-.364-.691-.364-1.148 0-.691.252-1.232.756-1.624.5134-.402 1.148-.602 1.904-.602.5694 0 1.0874.13 1.554.392.4667.252.8354.616 1.106 1.092l-1.54.84c-.224-.476-.5973-.714-1.12-.714-.2333 0-.4293.051-.588.154-.1493.102-.224.242-.224.42zm8.5724-.252h-1.582v2.912c0 .242.0607.42.182.532.1213.112.2987.177.532.196.2333.009.5227.004.868-.014v1.638c-1.2413.14-2.1187.023-2.632-.35-.504-.374-.756-1.041-.756-2.002v-2.912h-1.218v-1.736h1.218v-1.414l1.806-.546v1.96h1.582v1.736zm3.1887-.532c.168-.448.4434-.784.826-1.008.392-.224.826-.336 1.302-.336v2.016c-.5506-.066-1.0453.046-1.484.336-.4293.289-.644.77-.644 1.442v3.346h-1.806v-7h1.806v1.204zm8.2445-1.204h1.806v7h-1.806v-.826c-.5413.681-1.302 1.022-2.282 1.022-.9333 0-1.736-.355-2.408-1.064-.6627-.719-.994-1.596-.994-2.632s.3313-1.909.994-2.618c.672-.719 1.4747-1.078 2.408-1.078.98 0 1.7407.34 2.282 1.022v-.826zm-3.332 4.928c.364.364.826.546 1.386.546.56 0 1.022-.182 1.386-.546.3733-.374.56-.85.56-1.428 0-.579-.1867-1.05-.56-1.414-.364-.374-.826-.56-1.386-.56-.56 0-1.022.186-1.386.56-.364.364-.546.835-.546 1.414 0 .578.182 1.054.546 1.428zm10.7792-3.192h-1.5815v2.912c0 .242.0605.42.1815.532.122.112.299.177.532.196.234.009.523.004.868-.014v1.638c-1.241.14-2.1182.023-2.6315-.35-.504-.374-.756-1.041-.756-2.002v-2.912h-1.218v-1.736h1.218v-1.414l1.806-.546v1.96h1.5815v1.736zm7.019 4.396c-.719.709-1.596 1.064-2.632 1.064s-1.913-.355-2.632-1.064c-.709-.719-1.064-1.596-1.064-2.632s.355-1.909 1.064-2.618c.719-.719 1.596-1.078 2.632-1.078s1.913.359 2.632 1.078c.719.709 1.078 1.582 1.078 2.618 0 1.036-.359 1.913-1.078 2.632zm-3.99-1.246c.364.364.817.546 1.358.546.541 0 .994-.182 1.358-.546.364-.364.546-.826.546-1.386 0-.56-.182-1.022-.546-1.386-.364-.364-.817-.546-1.358-.546-.541 0-.994.182-1.358.546-.355.364-.532.826-.532 1.386 0 .56.177 1.022.532 1.386zm8.145-3.682c.168-.448.443-.784.826-1.008.392-.224.826-.336 1.302-.336v2.016c-.551-.066-1.046.046-1.484.336-.43.289-.644.77-.644 1.442v3.346h-1.806v-7h1.806v1.204z" fill="#828282"/><path d="M43.0034 4.45312h81.7606V85.458H43.0034V4.45312z" fill="url(#paint0_radial)"/><path d="M43.0034 4.45367h81.7606V85.4586H43.0034V4.45367zM39.2878 89.2423h89.2092V.669922H39.2878V89.2423zm58.431-56.9927c0-.3092.1072-.4547.4466-.4547h5.8416c.303 0 .446.1091.446.4547v29.8698c0 .3092-.071.4548-.446.4548h-5.7702c-.3751 0-.4823-.1819-.4823-.4912V32.2496h-.0357zm-.4109-8.6043c0-2.4195 1.6792-3.8565 3.7871-3.8565 2.269 0 3.787 1.5462 3.787 3.8565 0 2.4921-1.59 3.8565-3.858 3.8565-2.1441.0182-3.7161-1.3462-3.7161-3.8565zm-16.72 21.047c-1.0361-4.2021-3.5013-13.3522-4.4301-17.7908h-.0715c-.786 4.4204-2.751 11.9151-4.3051 17.7908h8.8067zm-10.325 6.1304L67.3333 62.174c-.0715.3092-.1787.382-.5538.382h-5.4662c-.3751 0-.4466-.1092-.3751-.5639l10.5572-37.6192c.1787-.6731.3037-1.2916.3752-3.1471 0-.2728.1071-.382.3036-.382h7.8063c.268 0 .3751.0728.4466.382l11.8255 40.839c.0715.3093 0 .4912-.3037.4912h-6.1628c-.3037 0-.4823-.0728-.5538-.3456l-3.0546-11.3877H70.2629z" fill="#FF7F18"/><path d="M12.5037 183.86c.2999-.921 1.6018-.921 1.9016 0l1.7511 5.374c.1342.412.5179.69.9508.69h5.6608c.9694 0 1.3717 1.241.5867 1.81l-4.5749 3.315c-.3514.254-.4985.707-.364 1.119l1.7485 5.367c.3001.921-.7532 1.688-1.5375 1.119l-4.5855-3.322c-.3501-.254-.8234-.254-1.1735 0l-4.58552 3.322c-.78426.569-1.83755-.198-1.53753-1.119l1.74858-5.367c.13445-.412-.01263-.865-.36409-1.119l-4.57487-3.315c-.78501-.569-.38268-1.81.58671-1.81h5.66076c.43296 0 .81666-.278.95076-.69l1.7511-5.374zM47.6009 183.86c.2999-.921 1.6018-.921 1.9016 0l1.7511 5.374c.1341.412.5179.69.9508.69h5.6608c.9694 0 1.3717 1.241.5867 1.81l-4.5749 3.315c-.3514.254-.4985.707-.3641 1.119l1.7486 5.367c.3.921-.7533 1.688-1.5375 1.119l-4.5856-3.322c-.35-.254-.8234-.254-1.1734 0l-4.5856 3.322c-.7842.569-1.8375-.198-1.5375-1.119l1.7486-5.367c.1344-.412-.0126-.865-.3641-1.119l-4.5749-3.315c-.785-.569-.3826-1.81.5868-1.81h5.6607c.4329 0 .8167-.278.9508-.69l1.7511-5.374zM82.6981 183.86c.2998-.921 1.6017-.921 1.9016 0l1.7511 5.374c.1341.412.5179.69.9508.69h5.6607c.9694 0 1.3718 1.241.5868 1.81l-4.5749 3.315c-.3515.254-.4986.707-.3641 1.119l1.7486 5.367c.3.921-.7533 1.688-1.5376 1.119l-4.5855-3.322c-.35-.254-.8234-.254-1.1734 0l-4.5856 3.322c-.7842.569-1.8375-.198-1.5375-1.119l1.7486-5.367c.1344-.412-.0127-.865-.3641-1.119l-4.5749-3.315c-.785-.569-.3827-1.81.5867-1.81h5.6608c.4329 0 .8167-.278.9508-.69l1.7511-5.374z" fill="#070707"/><path d="M117.795 183.86c.3-.921 1.602-.921 1.902 0l1.751 5.374c.134.412.518.69.951.69h5.661c.969 0 1.371 1.241.586 1.81l-4.575 3.315c-.351.254-.498.707-.364 1.119l1.749 5.367c.3.921-.753 1.688-1.538 1.119l-4.585-3.322c-.35-.254-.824-.254-1.174 0l-4.585 3.322c-.784.569-1.838-.198-1.538-1.119l1.749-5.367c.134-.412-.013-.865-.364-1.119l-4.575-3.315c-.785-.569-.383-1.81.587-1.81h5.66c.433 0 .817-.278.951-.69l1.751-5.374zM152.892 183.86c.3-.921 1.602-.921 1.902 0l1.751 5.374c.134.412.518.69.951.69h5.661c.969 0 1.371 1.241.586 1.81l-4.574 3.315c-.352.254-.499.707-.365 1.119l1.749 5.367c.3.921-.753 1.688-1.538 1.119l-4.585-3.322c-.35-.254-.823-.254-1.174 0l-4.585 3.322c-.784.569-1.838-.198-1.538-1.119l1.749-5.367c.134-.412-.013-.865-.364-1.119l-4.575-3.315c-.785-.569-.383-1.81.587-1.81h5.661c.432 0 .816-.278.95-.69l1.751-5.374z" fill="#E5E5E5"/><defs><radialGradient id="paint0_radial" cx="0" cy="0" r="1" gradientUnits="userSpaceOnUse" gradientTransform="matrix(62.1406 0 0 61.2673 69.958 22.6304)"><stop stop-color="#423325" stop-opacity=".98"/><stop offset="1" stop-color="#1C0A00"/></radialGradient></defs></svg>