<svg width="168" height="206" fill="none" xmlns="http://www.w3.org/2000/svg"><path d="M72.7896 116.29h-3.92v2.324h3.808v1.848h-3.808v3.78h-1.932v-9.8h5.852v1.848zm2.2198.112c-.2987 0-.56-.107-.784-.322-.2147-.224-.322-.485-.322-.784 0-.298.1073-.56.322-.784.224-.224.4853-.336.784-.336.308 0 .5693.112.784.336.224.224.336.486.336.784 0 .299-.112.56-.336.784-.2147.215-.476.322-.784.322zm-.896 7.84v-7h1.806v7h-1.806zm8.821-7h1.764v6.664c0 1.083-.3594 1.909-1.078 2.478-.7094.57-1.568.854-2.576.854-.756 0-1.4234-.144-2.002-.434-.5694-.289-1.008-.714-1.316-1.274l1.54-.882c.3546.654.966.98 1.834.98.5693 0 1.0173-.149 1.344-.448.3266-.298.49-.723.49-1.274v-.756c-.532.71-1.2787 1.064-2.24 1.064-.9894 0-1.82-.345-2.492-1.036-.6627-.7-.994-1.549-.994-2.548 0-.989.336-1.834 1.008-2.534.672-.7 1.498-1.05 2.478-1.05.9613 0 1.708.355 2.24 1.064v-.868zm-3.374 4.774c.3733.355.8446.532 1.414.532.5693 0 1.036-.177 1.4-.532.3733-.364.56-.826.56-1.386 0-.55-.1867-1.003-.56-1.358-.364-.364-.8307-.546-1.4-.546-.5694 0-1.0407.182-1.414.546-.364.355-.546.808-.546 1.358 0 .56.182 1.022.546 1.386zm14.5176-4.97c.8027 0 1.442.262 1.918.784.4854.523.728 1.223.728 2.1v4.312h-1.806v-4.186c0-.42-.1026-.746-.308-.98-.2053-.233-.4946-.35-.868-.35-.4106 0-.7326.136-.966.406-.224.271-.336.663-.336 1.176v3.934h-1.806v-4.186c0-.42-.1026-.746-.308-.98-.2053-.233-.4946-.35-.868-.35-.4013 0-.7233.136-.966.406-.2333.271-.35.663-.35 1.176v3.934h-1.806v-7h1.806v.742c.42-.625 1.0687-.938 1.946-.938.8587 0 1.4934.336 1.904 1.008.4667-.672 1.162-1.008 2.086-1.008zm9.5.196h1.806v7h-1.806v-.826c-.541.682-1.302 1.022-2.282 1.022-.933 0-1.7361-.354-2.4081-1.064-.6626-.718-.994-1.596-.994-2.632s.3314-1.908.994-2.618c.672-.718 1.4751-1.078 2.4081-1.078.98 0 1.741.341 2.282 1.022v-.826zm-3.332 4.928c.364.364.826.546 1.386.546.56 0 1.022-.182 1.386-.546.373-.373.56-.849.56-1.428 0-.578-.187-1.05-.56-1.414-.364-.373-.826-.56-1.386-.56-.56 0-1.022.187-1.386.56-.3641.364-.5461.836-.5461 1.414 0 .579.182 1.055.5461 1.428z" fill="#828282"/><g clip-path="url(#clip0)"><path d="M72.0513 89.6612c8.0385 0 14.5587-6.6398 14.5587-14.8257V60.0098H72.0513c-8.0385 0-14.5586 6.6397-14.5586 14.8257 0 8.1859 6.5201 14.8257 14.5586 14.8257z" fill="#0ACF83"/><path d="M57.4927 45.1655c0-8.1859 6.5201-14.8257 14.5586-14.8257H86.61v29.6696H72.0513c-8.0385-.0182-14.5586-6.6579-14.5586-14.8439z" fill="#A259FF"/><path d="M57.4927 15.4956c0-8.18595 6.5201-14.825678 14.5586-14.825678H86.61V30.3395H72.0513c-8.0385 0-14.5586-6.6579-14.5586-14.8439z" fill="#F24E1E"/><path d="M86.6279.669922h14.5591c8.038 0 14.558 6.639728 14.558 14.825678 0 8.186-6.52 14.8257-14.558 14.8257H86.6279V.669922z" fill="#FF7262"/><path d="M115.745 45.1655c0 8.186-6.52 14.8258-14.558 14.8258-8.0389 0-14.5591-6.6398-14.5591-14.8258 0-8.1859 6.5202-14.8257 14.5591-14.8257 8.038 0 14.558 6.6398 14.558 14.8257z" fill="#1ABCFE"/></g><path d="M12.9251 182.86c.2999-.921 1.6018-.921 1.9016 0l1.7511 5.374c.1341.412.5179.69.9508.69h5.6608c.9694 0 1.3717 1.241.5867 1.81l-4.5749 3.315c-.3514.254-.4985.707-.3641 1.119l1.7486 5.367c.3.921-.7532 1.688-1.5375 1.119l-4.5856-3.322c-.35-.254-.8234-.254-1.1734 0l-4.58554 3.322c-.78425.569-1.83754-.198-1.53752-1.119l1.74857-5.367c.13446-.412-.01262-.865-.36408-1.119l-4.57488-3.315c-.785-.569-.38267-1.81.58672-1.81h5.66073c.433 0 .8167-.278.9508-.69l1.7511-5.374zM48.022 182.86c.2999-.921 1.6018-.921 1.9017 0l1.7511 5.374c.1341.412.5178.69.9508.69h5.6607c.9694 0 1.3717 1.241.5867 1.81l-4.5748 3.315c-.3515.254-.4986.707-.3641 1.119l1.7485 5.367c.3001.921-.7532 1.688-1.5375 1.119l-4.5855-3.322c-.3501-.254-.8234-.254-1.1735 0l-4.5855 3.322c-.7843.569-1.8376-.198-1.5375-1.119l1.7485-5.367c.1345-.412-.0126-.865-.3641-1.119l-4.5748-3.315c-.785-.569-.3827-1.81.5867-1.81h5.6608c.4329 0 .8166-.278.9508-.69l1.751-5.374zM83.1192 182.86c.2999-.921 1.6018-.921 1.9016 0l1.7511 5.374c.1341.412.5179.69.9508.69h5.6608c.9694 0 1.3717 1.241.5867 1.81l-4.5749 3.315c-.3514.254-.4985.707-.3641 1.119l1.7486 5.367c.3.921-.7533 1.688-1.5375 1.119l-4.5856-3.322c-.35-.254-.8234-.254-1.1734 0l-4.5855 3.322c-.7843.569-1.8376-.198-1.5376-1.119l1.7486-5.367c.1345-.412-.0126-.865-.3641-1.119l-4.5749-3.315c-.785-.569-.3826-1.81.5868-1.81h5.6607c.4329 0 .8167-.278.9508-.69l1.7511-5.374zM118.216 182.86c.3-.921 1.602-.921 1.902 0l1.751 5.374c.134.412.518.69.951.69h5.661c.969 0 1.371 1.241.586 1.81l-4.575 3.315c-.351.254-.498.707-.364 1.119l1.749 5.367c.3.921-.753 1.688-1.538 1.119l-4.585-3.322c-.35-.254-.823-.254-1.174 0l-4.585 3.322c-.784.569-1.838-.198-1.538-1.119l1.749-5.367c.134-.412-.013-.865-.364-1.119l-4.575-3.315c-.785-.569-.383-1.81.587-1.81h5.66c.433 0 .817-.278.951-.69l1.751-5.374z" fill="#070707"/><path d="M153.314 182.86c.299-.921 1.601-.921 1.901 0l1.751 5.374c.134.412.518.69.951.69h5.661c.969 0 1.372 1.241.587 1.81l-4.575 3.315c-.352.254-.499.707-.364 1.119l1.748 5.367c.3.921-.753 1.688-1.537 1.119l-4.586-3.322c-.35-.254-.823-.254-1.173 0l-4.586 3.322c-.784.569-1.837-.198-1.537-1.119l1.748-5.367c.135-.412-.012-.865-.364-1.119l-4.575-3.315c-.785-.569-.382-1.81.587-1.81h5.661c.433 0 .816-.278.95-.69l1.752-5.374z" fill="#E5E5E5"/><defs><clipPath id="clip0"><path fill="#fff" transform="translate(57.4927 .669922)" d="M0 0h58.2524v88.9906H0z"/></clipPath></defs></svg>