<svg width="168" height="207" fill="none" xmlns="http://www.w3.org/2000/svg"><path d="M42.9341 4.42578h81.6649V85.2804H42.9341V4.42578z" fill="url(#paint0_radial)"/><path d="M42.9341 4.42575h81.6649V85.2803H42.9341V4.42575zM39.2212 89.0596h89.0728V.646484H39.2212V89.0596zm60.0664-52.1285c-2.9274 0-3.9271 1.5081-3.9271 2.7618 0 1.3627.6605 2.3075 4.6054 4.3788 5.8191 2.8708 7.6401 5.6326 7.6401 9.6662 0 6.0505-4.534 9.3029-10.6568 9.3029-3.2309 0-6.0155-.6723-7.6042-1.6171-.2678-.1091-.3035-.3089-.3035-.5996V55.246c0-.3815.1785-.4906.4463-.3089 2.3384 1.5444 5.0159 2.2349 7.4614 2.2349 2.9275 0 4.1588-1.2537 4.1588-2.9435 0-1.3627-.856-2.5619-4.605-4.5424-5.2659-2.5619-7.4615-5.1601-7.4615-9.5208 0-4.8695 3.7486-8.9213 10.2461-8.9213 3.1954 0 5.4264.4906 6.6404 1.0539.303.1817.375.4905.375.7631v5.1783c0 .3089-.179.4906-.554.3816-1.642-1.0539-4.052-1.6898-6.4614-1.6898zM67.3712 41.419c.8568.0727 1.5173.0727 2.9989.0727 4.3376 0 8.4253-1.5445 8.4253-7.5586 0-4.7967-2.9274-7.2133-7.872-7.2133-1.4816 0-2.8917.0727-3.5701.109l.0179 14.5902zm-6.6225-20.0592c0-.2726.5177-.4543.8211-.4543 2.3741-.109 5.9085-.1816 9.5678-.1816 10.2818 0 14.2982 5.7415 14.2982 13.0639 0 9.5935-6.8367 13.718-15.2264 13.718-1.4102 0-1.8921-.0727-2.8918-.0727v14.4993c0 .3089-.1071.4543-.4462.4543H61.195c-.3035 0-.4463-.1091-.4463-.4543V21.3598z" fill="#31C5F0"/><path d="M69.0468 124.266l-.588-1.764h-3.906l-.588 1.764h-2.086l3.43-9.8h2.394l3.444 9.8h-2.1zm-3.878-3.57h2.688l-1.344-4.004-1.344 4.004zm11.9601-6.23h1.806v9.8h-1.806v-.826c-.532.681-1.288 1.022-2.268 1.022-.9426 0-1.75-.355-2.422-1.064-.6626-.719-.994-1.596-.994-2.632s.3314-1.909.994-2.618c.672-.719 1.4794-1.078 2.422-1.078.98 0 1.736.34 2.268 1.022v-3.626zm-3.332 7.728c.3734.364.84.546 1.4.546.56 0 1.022-.182 1.386-.546.364-.374.546-.85.546-1.428 0-.579-.182-1.05-.546-1.414-.364-.374-.826-.56-1.386-.56-.56 0-1.0266.186-1.4.56-.364.364-.546.835-.546 1.414 0 .578.182 1.054.546 1.428zm12.7537 1.204c-.7186.709-1.596 1.064-2.632 1.064s-1.9133-.355-2.632-1.064c-.7093-.719-1.064-1.596-1.064-2.632s.3547-1.909 1.064-2.618c.7187-.719 1.596-1.078 2.632-1.078s1.9134.359 2.632 1.078c.7187.709 1.078 1.582 1.078 2.618 0 1.036-.3593 1.913-1.078 2.632zm-3.99-1.246c.364.364.8167.546 1.358.546.5414 0 .994-.182 1.358-.546.364-.364.546-.826.546-1.386 0-.56-.182-1.022-.546-1.386-.364-.364-.8166-.546-1.358-.546-.5413 0-.994.182-1.358.546-.3546.364-.532.826-.532 1.386 0 .56.1774 1.022.532 1.386zm10.4125-5.082c.9427 0 1.7454.359 2.408 1.078.672.709 1.008 1.582 1.008 2.618 0 1.036-.336 1.913-1.008 2.632-.6626.709-1.4653 1.064-2.408 1.064-.98 0-1.736-.341-2.268-1.022v.826h-1.806v-9.8h1.806v3.626c.532-.682 1.288-1.022 2.268-1.022zm-1.722 5.124c.364.364.826.546 1.386.546.56 0 1.022-.182 1.386-.546.3734-.374.56-.85.56-1.428 0-.579-.1866-1.05-.56-1.414-.364-.374-.826-.56-1.386-.56-.56 0-1.022.186-1.386.56-.364.364-.546.835-.546 1.414 0 .578.182 1.054.546 1.428zm7.9377-.686c.2427.877.9002 1.316 1.9742 1.316.69 0 1.213-.234 1.568-.7l1.456.84c-.691.998-1.708 1.498-3.052 1.498-1.1575 0-2.0862-.35-2.7862-1.05-.7-.7-1.05-1.582-1.05-2.646 0-1.055.3453-1.932 1.036-2.632.6907-.71 1.5773-1.064 2.6602-1.064 1.026 0 1.871.354 2.534 1.064.672.709 1.008 1.586 1.008 2.632 0 .233-.024.48-.07.742h-5.2782zm-.028-1.4h3.5702c-.103-.476-.318-.831-.644-1.064-.318-.234-.682-.35-1.092-.35-.486 0-.887.126-1.2042.378-.3173.242-.5273.588-.63 1.036zM53.31 131.466c.9426 0 1.736.317 2.38.952.644.634.966 1.414.966 2.338 0 .924-.322 1.703-.966 2.338-.644.634-1.4374.952-2.38.952h-1.722v3.22h-1.932v-9.8h3.654zm0 4.774c.4106 0 .7513-.14 1.022-.42.2706-.29.406-.644.406-1.064 0-.43-.1354-.784-.406-1.064-.2707-.28-.6114-.42-1.022-.42h-1.722v2.968h1.722zm8.4118-2.17c.7653 0 1.3953.256 1.89.77.504.513.756 1.222.756 2.128v4.298h-1.806v-4.074c0-.467-.126-.822-.378-1.064-.252-.252-.588-.378-1.008-.378-.4667 0-.84.144-1.12.434-.28.289-.42.723-.42 1.302v3.78h-1.806v-9.8h1.806v3.584c.4387-.654 1.134-.98 2.086-.98zm10.1521 6.328c-.7187.709-1.596 1.064-2.632 1.064s-1.9134-.355-2.632-1.064c-.7094-.719-1.064-1.596-1.064-2.632s.3546-1.909 1.064-2.618c.7186-.719 1.596-1.078 2.632-1.078s1.9133.359 2.632 1.078c.7186.709 1.078 1.582 1.078 2.618 0 1.036-.3594 1.913-1.078 2.632zm-3.99-1.246c.364.364.8166.546 1.358.546.5413 0 .994-.182 1.358-.546.364-.364.546-.826.546-1.386 0-.56-.182-1.022-.546-1.386-.364-.364-.8167-.546-1.358-.546-.5414 0-.994.182-1.358.546-.3547.364-.532.826-.532 1.386 0 .56.1773 1.022.532 1.386zm10.1921-3.15h-1.582v2.912c0 .242.0606.42.182.532.1213.112.2986.177.532.196.2333.009.5226.004.868-.014v1.638c-1.2414.14-2.1187.023-2.632-.35-.504-.374-.756-1.041-.756-2.002v-2.912H73.47v-1.736h1.218v-1.414l1.806-.546v1.96h1.582v1.736zm7.0186 4.396c-.7187.709-1.596 1.064-2.632 1.064s-1.9134-.355-2.632-1.064c-.7094-.719-1.064-1.596-1.064-2.632s.3546-1.909 1.064-2.618c.7186-.719 1.596-1.078 2.632-1.078s1.9133.359 2.632 1.078c.7186.709 1.078 1.582 1.078 2.618 0 1.036-.3594 1.913-1.078 2.632zm-3.99-1.246c.364.364.8166.546 1.358.546.5413 0 .994-.182 1.358-.546.364-.364.546-.826.546-1.386 0-.56-.182-1.022-.546-1.386-.364-.364-.8167-.546-1.358-.546-.5414 0-.994.182-1.358.546-.3547.364-.532.826-.532 1.386 0 .56.1773 1.022.532 1.386zm7.8541-2.898c0 .186.1213.34.364.462.252.112.5553.214.91.308.3546.084.7093.196 1.064.336.3546.13.6533.354.896.672.252.317.378.714.378 1.19 0 .718-.2707 1.274-.812 1.666-.532.382-1.1994.574-2.002.574-1.4374 0-2.4174-.556-2.94-1.666l1.568-.882c.2053.606.6626.91 1.372.91.644 0 .966-.201.966-.602 0-.187-.126-.336-.378-.448-.2427-.122-.5414-.229-.896-.322-.3547-.094-.7094-.21-1.064-.35-.3547-.14-.658-.36-.91-.658-.2427-.308-.364-.691-.364-1.148 0-.691.252-1.232.756-1.624.5133-.402 1.148-.602 1.904-.602.5693 0 1.0873.13 1.554.392.4666.252.8353.616 1.106 1.092l-1.54.84c-.224-.476-.5974-.714-1.12-.714-.2334 0-.4294.051-.588.154-.1494.102-.224.242-.224.42zm8.6654-2.184c.7654 0 1.3954.256 1.89.77.5039.513.7559 1.222.7559 2.128v4.298h-1.8059v-4.074c0-.467-.126-.822-.378-1.064-.252-.252-.588-.378-1.008-.378-.4666 0-.84.144-1.12.434-.28.289-.42.723-.42 1.302v3.78h-1.806v-9.8h1.806v3.584c.4387-.654 1.134-.98 2.086-.98zm10.1519 6.328c-.718.709-1.596 1.064-2.632 1.064s-1.913-.355-2.632-1.064c-.709-.719-1.064-1.596-1.064-2.632s.355-1.909 1.064-2.618c.719-.719 1.596-1.078 2.632-1.078s1.914.359 2.632 1.078c.719.709 1.078 1.582 1.078 2.618 0 1.036-.359 1.913-1.078 2.632zm-3.99-1.246c.364.364.817.546 1.358.546.542 0 .994-.182 1.358-.546.364-.364.546-.826.546-1.386 0-.56-.182-1.022-.546-1.386-.364-.364-.816-.546-1.358-.546-.541 0-.994.182-1.358.546-.354.364-.532.826-.532 1.386 0 .56.178 1.022.532 1.386zm10.413-5.082c.942 0 1.745.359 2.408 1.078.672.709 1.008 1.582 1.008 2.618 0 1.036-.336 1.913-1.008 2.632-.663.709-1.466 1.064-2.408 1.064-.98 0-1.736-.341-2.268-1.022v3.626h-1.806v-9.8h1.806v.826c.532-.682 1.288-1.022 2.268-1.022zm-1.722 5.124c.364.364.826.546 1.386.546.56 0 1.022-.182 1.386-.546.373-.374.56-.85.56-1.428 0-.579-.187-1.05-.56-1.414-.364-.374-.826-.56-1.386-.56-.56 0-1.022.186-1.386.56-.364.364-.546.835-.546 1.414 0 .578.182 1.054.546 1.428z" fill="#828282"/><path d="M12.7933 183.86c.2998-.921 1.6018-.921 1.9016 0l1.7511 5.374c.1341.412.5179.69.9508.69h5.6608c.9693 0 1.3717 1.241.5867 1.81l-4.5749 3.315c-.3515.254-.4985.707-.3641 1.119l1.7486 5.367c.3.921-.7533 1.688-1.5375 1.119l-4.5856-3.322c-.35-.254-.8234-.254-1.1734 0l-4.58557 3.322c-.78426.569-1.83755-.198-1.53753-1.119l1.74858-5.367c.13445-.412-.01263-.865-.36409-1.119l-4.57487-3.315c-.78501-.569-.38268-1.81.58672-1.81h5.66076c.4329 0 .8167-.278.9508-.69l1.7511-5.374zM47.8902 183.86c.2999-.921 1.6018-.921 1.9016 0l1.7511 5.374c.1341.412.5179.69.9508.69h5.6608c.9694 0 1.3717 1.241.5867 1.81l-4.5749 3.315c-.3514.254-.4985.707-.3641 1.119l1.7486 5.367c.3.921-.7533 1.688-1.5375 1.119l-4.5856-3.322c-.35-.254-.8234-.254-1.1734 0l-4.5855 3.322c-.7843.569-1.8376-.198-1.5376-1.119l1.7486-5.367c.1345-.412-.0126-.865-.3641-1.119l-4.5749-3.315c-.785-.569-.3826-1.81.5868-1.81h5.6607c.4329 0 .8167-.278.9508-.69l1.7511-5.374zM82.9874 183.86c.2998-.921 1.6017-.921 1.9016 0l1.7511 5.374c.1341.412.5179.69.9508.69h5.6607c.9694 0 1.3718 1.241.5868 1.81l-4.5749 3.315c-.3515.254-.4986.707-.3641 1.119l1.7486 5.367c.3.921-.7533 1.688-1.5375 1.119l-4.5856-3.322c-.35-.254-.8234-.254-1.1734 0l-4.5856 3.322c-.7842.569-1.8375-.198-1.5375-1.119l1.7486-5.367c.1344-.412-.0127-.865-.3641-1.119l-4.5749-3.315c-.785-.569-.3827-1.81.5867-1.81h5.6608c.4329 0 .8167-.278.9508-.69l1.7511-5.374zM118.085 183.86c.299-.921 1.601-.921 1.901 0l1.751 5.374c.134.412.518.69.951.69h5.661c.969 0 1.372 1.241.587 1.81l-4.575 3.315c-.352.254-.499.707-.364 1.119l1.748 5.367c.3.921-.753 1.688-1.537 1.119l-4.586-3.322c-.35-.254-.823-.254-1.173 0l-4.586 3.322c-.784.569-1.837-.198-1.537-1.119l1.748-5.367c.135-.412-.012-.865-.364-1.119l-4.575-3.315c-.785-.569-.382-1.81.587-1.81h5.661c.433 0 .816-.278.95-.69l1.752-5.374z" fill="#070707"/><path d="M153.182 183.86c.3-.921 1.601-.921 1.901 0l1.751 5.374c.135.412.518.69.951.69h5.661c.969 0 1.372 1.241.587 1.81l-4.575 3.315c-.352.254-.499.707-.364 1.119l1.748 5.367c.3.921-.753 1.688-1.537 1.119l-4.586-3.322c-.35-.254-.823-.254-1.173 0l-4.586 3.322c-.784.569-1.837-.198-1.537-1.119l1.748-5.367c.135-.412-.012-.865-.364-1.119l-4.575-3.315c-.785-.569-.382-1.81.587-1.81h5.661c.433 0 .817-.278.951-.69l1.751-5.374z" fill="#E5E5E5"/><defs><radialGradient id="paint0_radial" cx="0" cy="0" r="1" gradientUnits="userSpaceOnUse" gradientTransform="matrix(62.0565 0 0 61.1565 69.8385 22.5656)"><stop stop-color="#34364E" stop-opacity=".98"/><stop offset="1" stop-color="#0C0824"/></radialGradient></defs></svg>